<svg xmlns="http://www.w3.org/2000/svg" xmlns:xlink="http://www.w3.org/1999/xlink" xmlns:sketch="http://www.bohemiancoding.com/sketch/ns" viewBox="0 0 43 57.5" version="1.1" x="0px" y="0px"><title>Icon-Digital</title><desc>Created with Sketch.</desc><g stroke="none" stroke-width="1" fill="none" fill-rule="evenodd" sketch:type="MSPage"><g sketch:type="MSArtboardGroup" transform="translate(-538.000000, -91.000000)" fill="#fff"><g sketch:type="MSLayerGroup" transform="translate(98.000000, 85.000000)"><path d="M442.898279,23.5033042 C442.917208,23.3987692 442.963524,23.1836447 443.042314,22.8739553 C443.17638,22.3470016 443.353105,21.7570387 443.577438,21.1201116 C444.219601,19.2968805 445.111525,17.4733659 446.290035,15.776427 C449.635897,10.958716 454.579288,8.08687917 461.528676,8.08687917 C468.764662,8.08687917 473.708897,10.5057081 476.585815,14.6589009 C478.795828,17.8493311 479.613019,21.9882917 479.072516,25.137721 C478.097132,29.9387592 478.547209,32.7559186 480.074288,34.5289343 C480.371362,34.8738525 481.275058,35.6865368 481.083534,35.5010192 C481.480229,35.8852737 482.113314,35.8751888 482.497569,35.4784938 C482.881823,35.0817988 482.871738,34.4487142 482.475043,34.0644596 C482.372338,33.9649758 481.970483,33.6107704 482.01514,33.6509297 C481.843844,33.4968847 481.713123,33.3670425 481.589692,33.2237333 C480.520765,31.9826546 480.169446,29.7836531 481.038106,25.505869 C481.670168,21.825665 480.748064,17.1553337 478.229898,13.5200444 C474.967075,8.80975121 469.401358,6.08687917 461.528676,6.08687917 C453.88821,6.08687917 448.349805,9.30438653 444.647332,14.6355826 C443.358925,16.4907611 442.389323,18.4730867 441.691026,20.4556957 C441.446198,21.1508127 441.252406,21.7977479 441.10406,22.3808308 C441.013403,22.7371635 440.957295,22.997769 440.930281,23.1469567 C440.831879,23.6904044 441.192659,24.2107268 441.736107,24.3091295 C442.279554,24.4075321 442.799877,24.0467518 442.898279,23.5033042 Z M479.524784,39.3988541 C479.401993,39.3602774 479.152387,39.2623984 478.819364,39.0971894 C478.252568,38.8160079 477.684412,38.4514624 477.156733,37.997692 C475.666707,36.7163627 474.784381,34.9945216 474.784381,32.7048687 C474.784381,30.2210703 474.859914,28.9159734 475.024899,27.6449949 C475.041803,27.5147704 475.099596,27.0872596 475.103511,27.0577833 C475.231239,26.0960884 475.282057,25.3774469 475.282057,24.1414009 C475.282057,17.930387 470.785811,12.7648086 461.207588,12.4276325 C455.964106,12.2430496 452.155441,14.5417467 449.631481,18.4373783 C448.793367,19.7309741 448.159895,21.1104776 447.700012,22.4898178 C447.422527,23.3220843 447.26285,23.9776918 447.19352,24.3712458 C447.17589,24.4599304 447.120829,24.6768819 447.025862,24.964569 C446.865833,25.4493488 446.654256,25.9335673 446.388503,26.3785648 C445.341111,28.1323971 443.860596,28.7679247 441.509835,27.7820832 C441.000524,27.568493 440.414497,27.8082219 440.200906,28.3175329 C439.987316,28.8268438 440.227045,29.412871 440.736356,29.6264613 C444.081426,31.0292872 446.581496,29.9561038 448.105605,27.4040214 C448.700088,26.4085745 449.024017,25.4272863 449.159579,24.7376076 C449.174877,24.6518919 449.204359,24.5098869 449.254685,24.3032541 C449.340973,23.9489721 449.454216,23.551663 449.597336,23.1224016 C450.006963,21.893797 450.571067,20.6653557 451.309981,19.5248697 C453.474298,16.1843331 456.648784,14.2683907 461.137227,14.4263945 C469.590785,14.7239797 473.282057,18.9647526 473.282057,24.1414009 C473.282057,25.2861316 473.237427,25.9172584 473.120921,26.7944641 C473.117626,26.8192693 473.059259,27.251032 473.04154,27.3875359 C472.864839,28.7487683 472.784381,30.1389571 472.784381,32.7048687 C472.784381,35.6116099 473.942311,37.8712862 475.852709,39.5141093 C476.990081,40.4921778 478.126476,41.0559316 478.925339,41.3069069 C479.452233,41.4724391 480.013556,41.1794973 480.179088,40.652603 C480.34462,40.1257088 480.051678,39.5643862 479.524784,39.3988541 Z M444.399679,41.4063626 C444.554035,41.3934465 444.826915,41.3628371 445.201652,41.3085989 C445.817089,41.2195225 446.500558,41.0949179 447.235471,40.9287175 C449.335596,40.4537746 451.436914,39.7390576 453.406908,38.7322029 C458.92233,35.9132969 462.358451,31.3810629 462.576543,24.8513215 C462.594979,24.2993446 462.162458,23.8369335 461.610481,23.8184976 C461.058504,23.8000617 460.596093,24.2325821 460.577657,24.7845591 C460.38623,30.5159491 457.411766,34.4392596 452.496709,36.9513221 C450.688665,37.8754048 448.742085,38.5374911 446.794312,38.9779795 C446.112461,39.1321799 445.480363,39.247419 444.915164,39.3292241 C444.581519,39.3775148 444.348411,39.4036628 444.232908,39.4133278 C443.682546,39.4593804 443.273723,39.9428694 443.319776,40.4932308 C443.365828,41.0435921 443.849318,41.4524151 444.399679,41.4063626 Z M441.683993,35.9515633 C441.708111,35.952507 441.708111,35.952507 441.789592,35.9545496 C442.390941,35.967277 443.192968,35.9421212 444.126031,35.8486049 C445.544406,35.7064482 446.949386,35.4332768 448.273101,34.9949516 C451.658523,33.8739277 454.052167,31.8377041 454.884942,28.6827042 C456.688595,21.8494997 457.965964,20.2035678 461.363669,20.2035678 C465.077422,20.2035678 467.824201,23.534144 466.952821,27.4758007 C466.89871,27.7205689 466.846586,27.971749 466.777674,28.3155287 C465.600184,34.1895797 464.098111,36.7991835 458.064039,40.33565 C455.684484,41.7302664 452.729394,43.0625016 449.126228,44.3346949 C448.605451,44.5185691 448.332338,45.0898018 448.516212,45.6105788 C448.700086,46.1313559 449.271318,46.4044696 449.792096,46.2205955 C453.509092,44.9082111 456.578823,43.5242928 459.075319,42.0611393 C465.67346,38.1940816 467.459115,35.0917998 468.738663,28.7086211 C468.80521,28.3766435 468.854951,28.1369437 468.90567,27.9075164 C470.055814,22.7048848 466.343506,18.2035678 461.363669,18.2035678 C456.789612,18.2035678 454.960272,20.5607322 452.951173,28.1722776 C452.316078,30.5783573 450.447074,32.1682807 447.644407,33.0963352 C446.472892,33.4842623 445.208548,33.7300896 443.92658,33.8585749 C443.079786,33.9434449 442.357086,33.9661126 441.831912,33.9549974 C441.770146,33.9534389 441.770146,33.9534389 441.764447,33.9531822 C441.212609,33.9309655 440.747246,34.3603081 440.725029,34.9121459 C440.702813,35.4639836 441.132155,35.9293466 441.683993,35.9515633 Z M455.812161,49.7033441 C455.946052,49.6003661 456.205324,49.4116163 456.566911,49.1658997 C457.173781,48.7534997 457.837791,48.3407276 458.534986,47.9564514 C459.732676,47.2963159 460.897979,46.7927221 461.969254,46.50768 C462.606516,46.3381192 463.195152,46.2506619 463.724603,46.2506619 C465.652625,46.2506619 466.480034,46.6590006 468.067814,48.0379783 C468.076699,48.0456948 468.076699,48.0456948 468.085598,48.0534238 C468.851281,48.7184101 469.233485,49.0192845 469.796078,49.3517249 C470.271555,49.6326875 470.884771,49.4750024 471.165734,48.9995254 C471.446696,48.5240483 471.289011,47.9108328 470.813534,47.6298701 C470.387427,47.3780805 470.073991,47.1313404 469.397029,46.5434076 C469.388147,46.5356932 469.388147,46.5356932 469.37925,46.5279666 C467.46176,44.8626375 466.221725,44.2506619 463.724603,44.2506619 C463.008408,44.2506619 462.250428,44.3632796 461.454993,44.5749268 C460.206673,44.9070764 458.898539,45.4723954 457.56957,46.2048888 C456.814179,46.6212412 456.098254,47.0662853 455.442798,47.5117017 C455.212704,47.6680623 455.006124,47.8136617 454.825775,47.9449547 C454.715387,48.0253175 454.636828,48.0841871 454.592848,48.1180125 C454.155071,48.4547164 454.073135,49.0825574 454.409839,49.5203347 C454.746543,49.9581119 455.374384,50.040048 455.812161,49.7033441 Z M468.621239,38.9296555 C468.699933,39.1687639 468.85025,39.565053 469.074461,40.0674968 C469.446168,40.9004715 469.896085,41.7337423 470.429134,42.5170739 C471.663279,44.3306855 473.155655,45.61472 474.952887,46.094674 C475.486473,46.237169 476.034544,45.9201274 476.177039,45.3865418 C476.319534,44.8529562 476.002493,44.3048845 475.468907,44.1623895 C474.212529,43.8268715 473.071554,42.8451809 472.08261,41.3918995 C471.622052,40.7150965 471.22727,39.9839372 470.900865,39.2524818 C470.706208,38.8162676 470.579602,38.4824894 470.520996,38.3044165 C470.348341,37.7798131 469.783101,37.4945026 469.258498,37.6671576 C468.733895,37.8398125 468.448584,38.4050521 468.621239,38.9296555 Z M463.716216,51.9069767 C465.246194,51.9069767 466.486486,51.4056779 466.486486,50.7872944 C466.486486,50.1689109 465.246194,49.667612 463.716216,49.667612 C462.186238,49.667612 460.945946,50.1689109 460.945946,50.7872944 C460.945946,51.4056779 462.186238,51.9069767 463.716216,51.9069767 Z" sketch:type="MSShapeGroup"/></g></g></g></svg>
