<svg xmlns="http://www.w3.org/2000/svg" xmlns:xlink="http://www.w3.org/1999/xlink" version="1.1" x="0px" y="0px" viewBox="0 0 50 62.5" enable-background="new 0 0 50 50" xml:space="preserve"><g><path fill="#fff" d="M13.291,42.483H5.769c-0.268,0-0.479-0.195-0.479-0.434V21.301c0-0.239,0.211-0.433,0.479-0.433h7.522   c0.76-0.891,1.605-1.696,2.536-2.401H5.769c-1.561,0-2.83,1.274-2.83,2.834V42.05c0,1.563,1.27,2.838,2.83,2.838h10.059   C14.896,44.182,14.051,43.372,13.291,42.483z"/><path fill="#fff" d="M44.229,18.467h-9.161c0.926,0.705,1.773,1.511,2.528,2.401h6.633c0.269,0,0.482,0.193,0.482,0.433V42.05   c0,0.238-0.214,0.434-0.482,0.434h-6.633c-0.755,0.889-1.603,1.698-2.528,2.404h9.161c1.563,0,2.833-1.274,2.833-2.838V21.301   C47.062,19.741,45.792,18.467,44.229,18.467z"/><g><path fill="#fff" d="M39.296,31.741c0,7.76-6.18,14.072-13.771,14.072c-7.594,0-13.774-6.313-13.774-14.072    c0-7.759,6.181-14.069,13.774-14.069C33.116,17.672,39.296,23.982,39.296,31.741z M25.524,15.267    c-8.894,0-16.124,7.392-16.124,16.475c0,9.084,7.23,16.475,16.124,16.475c8.887,0,16.122-7.391,16.122-16.475    C41.646,22.658,34.411,15.267,25.524,15.267z"/></g><g><path fill="#fff" d="M22.079,24.211v0.003c0.056-0.019,5.684-1.682,9.125,1.063c2.012,1.605,2.947,4.489,2.776,8.565    l2.347,0.104c0.209-4.904-1.033-8.464-3.689-10.573c-4.401-3.503-10.956-1.547-11.234-1.462L22.079,24.211z"/></g><g><path fill="#fff" d="M10.878,16.912c0-0.851-0.681-1.547-1.515-1.547H6.396c-0.832,0-1.509,0.696-1.509,1.547v1.855    c0,0.854,0.677,1.546,1.509,1.546h2.968c0.834,0,1.515-0.692,1.515-1.546V16.912z M9.868,18.768c0,0.283-0.228,0.515-0.505,0.515    H6.396c-0.277,0-0.503-0.231-0.503-0.515v-1.855c0-0.285,0.226-0.517,0.503-0.517h2.968c0.277,0,0.505,0.231,0.505,0.517V18.768z"/></g><path fill="#fff" d="M47.034,5.045c0,1.807-1.43,3.267-3.194,3.267c-1.763,0-3.192-1.46-3.192-3.267   c0-1.796,1.43-3.261,3.192-3.261C45.604,1.784,47.034,3.249,47.034,5.045z"/><path fill="#fff" d="M42.306,11.442c0,1.01-1.084,1.828-2.428,1.828c-1.338,0-2.424-0.818-2.424-1.828   c0-1.008,1.086-1.823,2.424-1.823C41.222,9.619,42.306,10.435,42.306,11.442z"/><path fill="#fff" d="M33.248,9.049c0,1.658-1.313,3.004-2.936,3.004c-1.626,0-2.94-1.346-2.94-3.004   c0-1.657,1.314-3.002,2.94-3.002C31.935,6.047,33.248,7.392,33.248,9.049z"/></g></svg>
