<svg xmlns="http://www.w3.org/2000/svg" xmlns:xlink="http://www.w3.org/1999/xlink" version="1.1" x="0px" y="0px" viewBox="0 0 100 125" enable-background="new 0 0 100 100" xml:space="preserve"><g><g><path fill-rule="evenodd" clip-rule="evenodd" fill="#1CDEB4" d="M47.806,84.697C34.926,80.15,22.799,71.818,21.284,52.12    C19.011,31.666,34.165,11.968,56.142,9.696c21.215-2.271,41.67,13.636,43.944,34.849c1.515,16.667-7.577,28.788-21.215,32.576    C76.598,84.697,77.356,90,80.386,90C69.778,90,54.625,86.97,47.806,84.697L47.806,84.697z M13.707,80.908    C4.615,78.636-0.685,71.061,0.072,60.454C0.827,51.363,6.888,43.029,15.223,40c-0.758,3.788-1.516,7.575-0.758,12.121    c-3.03,2.273-4.546,5.304-5.304,9.092c0,6.817,3.031,11.363,8.335,12.879c1.515,3.03,0.757,5.303,0,5.303    c2.272,0,6.061,0,8.334-0.758c2.273,2.272,4.546,4.547,7.577,6.819c0,0,0,0,0.758,0c-0.758,0-0.758,0-0.758,0    c-4.546,2.272-13.639,3.787-21.215,3.787C14.465,89.242,15.223,85.455,13.707,80.908L13.707,80.908z M72.051,67.272    c8.335-3.031,13.64-10.606,12.882-20.455c-1.517-13.637-13.64-23.485-27.277-21.97c-13.637,0.758-22.729,13.637-21.972,26.516    c1.516,12.122,9.093,17.425,16.669,19.697c4.547,2.272,13.638,3.788,20.457,3.788C71.293,74.849,70.537,71.061,72.051,67.272    L72.051,67.272z"/></g></g></svg>
