<svg class="WD__products__like" xmlns="http://www.w3.org/2000/svg" xmlns:xlink="http://www.w3.org/1999/xlink" version="1.1" x="0px" y="0px" viewBox="0 0 100 125" enable-background="new 0 0 100 100" xml:space="preserve"><g><path class="WD__products__like__color" d="M50.189,93.669l-2.658-2.33c-0.201-0.176-20.207-17.73-31.977-29.498C8.103,54.38,4,44.479,4,33.961   c0-15.235,12.395-27.63,27.629-27.63c6.836,0,13.327,2.553,18.371,7.122c5.042-4.57,11.533-7.122,18.371-7.122   C83.605,6.331,96,18.726,96,33.961c0,10.532-4.102,20.435-11.549,27.88C72.7,73.604,53.025,91.142,52.828,91.317L50.189,93.669z    M31.629,14.331C20.806,14.331,12,23.137,12,33.961c0,8.384,3.271,16.276,9.213,22.226c9.046,9.045,23.115,21.631,28.935,26.791   c5.75-5.174,19.606-17.744,28.646-26.793C84.73,50.249,88,42.356,88,33.961c0-10.824-8.806-19.63-19.629-19.63   c-5.907,0-11.465,2.713-15.247,7.443l-3.123,3.905l-3.124-3.904C43.092,17.044,37.534,14.331,31.629,14.331z"/></g></svg>
