<svg class="WD__products__like" xmlns="http://www.w3.org/2000/svg" xmlns:xlink="http://www.w3.org/1999/xlink" version="1.1" x="0px" y="0px" viewBox="0 0 100 125" enable-background="new 0 0 100 100" xml:space="preserve"><path class="WD__products__like__color" d="M50,90.9l-5.1-3.6C29,76.2,9.1,62.5,6.4,46.4C5,37.8,7.2,29.2,12.6,22.8c4.8-5.7,11.6-9,18.5-9c7,0,13.6,3.2,18.9,9.2  c5.3-6,11.9-9.2,18.9-9.2c7,0,13.7,3.3,18.5,9c5.4,6.4,7.6,15,6.2,23.6c-2.7,16.1-22.5,29.8-38.5,40.9L50,90.9z M31.2,21.8  c-4.6,0-9.1,2.2-12.4,6.1c-3.9,4.6-5.5,10.8-4.4,17.1c2.2,12.7,20.4,25.4,35.1,35.7l0.6,0.4l0.6-0.4c14.7-10.2,33-22.9,35.1-35.7  c1.1-6.3-0.5-12.5-4.4-17.1c-3.3-3.9-7.8-6.1-12.4-6.1c-5.9,0-11.2,3.5-15.5,10L50,36.9l-3.3-5.1C42.5,25.4,36.9,21.8,31.2,21.8z"/></svg>
