<svg class="WD__products__like" version="1.1" xmlns="http://www.w3.org/2000/svg" xmlns:xlink="http://www.w3.org/1999/xlink" x="0px" y="0px" viewBox="0 0 22 22" enable-background="new 0 0 22 22" xml:space="preserve">
<path class="WD__products__like__color" d="M17.335,3.697C16.482,3.241,15.555,3,14.572,3c-1.46,0-2.778,0.527-3.832,1.45C9.687,3.527,8.368,3,6.908,3
    c-0.984,0-1.91,0.241-2.763,0.697C2.302,4.683,1.149,6.567,1.149,8.652c0,0.599,0.136,1.177,0.296,1.748
    c0.181,0.645,0.525,1.407,1.083,2.191c0.81,1.137,1.995,2.324,3.457,3.535c0.978,0.811,1.912,1.596,2.963,2.297
    c0.65,0.434,1.789,1.143,1.791,1.154v0l0,0l0,0v0c0.002-0.01,1.141-0.72,1.791-1.154c1.052-0.702,1.986-1.487,2.963-2.297
    c1.461-1.211,2.646-2.398,3.457-3.535c0.559-0.784,0.903-1.547,1.083-2.191c0.16-0.571,0.296-1.15,0.296-1.748
    C20.331,6.567,19.178,4.683,17.335,3.697z M18.472,10.01c-0.138,0.501-0.399,1.085-0.842,1.716
    c-0.707,1.007-1.777,2.101-3.118,3.228c-1.801,1.514-3.768,2.788-3.768,2.791c0-0.003-1.971-1.277-3.772-2.791
    c-1.341-1.127-2.415-2.221-3.122-3.228c-0.443-0.631-0.704-1.215-0.842-1.716C2.874,9.525,2.781,9.109,2.781,8.68
    c0-1.511,0.833-2.88,2.162-3.602c0.62-0.337,1.308-0.514,2.025-0.514c1.273,0,2.446,0.549,3.235,1.5
    c0.137,0.165,0.541,0.664,0.541,0.664s0.401-0.499,0.537-0.664c0.789-0.951,1.96-1.5,3.233-1.5c0.717,0,1.404,0.178,2.024,0.514
    c1.329,0.722,2.161,2.091,2.161,3.602C18.699,9.109,18.606,9.525,18.472,10.01z"/>
</svg>
