<svg class="WD__products__like" xmlns="http://www.w3.org/2000/svg" xmlns:xlink="http://www.w3.org/1999/xlink" version="1.1" x="0px" y="0px" viewBox="0 0 100 100" enable-background="new 0 0 100 100" xml:space="preserve"><g><path class="WD__products__like__color" d="M50,94.913l-2.219-1.411C45.872,92.286,1,63.432,1,36.69C1,19.667,8.843,8.019,21.981,5.535   c12.517-2.366,25.87,4.878,30.424,16.488c0.833,2.124-0.213,4.523-2.339,5.356c-2.131,0.834-4.523-0.213-5.356-2.339   c-3.152-8.036-12.471-13.036-21.193-11.385C14.459,15.368,9.264,23.764,9.264,36.69c0,17.391,27.574,39.536,40.736,48.385   c13.162-8.849,40.736-30.993,40.736-48.385c0-10.513-3.476-18.143-9.785-21.484c-5.653-2.992-13.106-2.345-18.987,1.653   c-1.886,1.286-4.458,0.794-5.741-1.094s-0.793-4.458,1.094-5.741c8.384-5.696,19.179-6.53,27.501-2.121   C90.115,10.707,99,18.176,99,36.69c0,26.742-44.872,55.596-46.781,56.811L50,94.913z"></path></g></svg>
