<svg xmlns="http://www.w3.org/2000/svg" xmlns:xlink="http://www.w3.org/1999/xlink" version="1.1" x="0px" y="0px" viewBox="0 0 48 60" enable-background="new 0 0 48 48" xml:space="preserve"><g><path fill="#fff" d="M36.1,21.5l9.2,0c0,0,0,0,0,0v-6.7c0-1.8-1.5-3.3-3.3-3.3H3.8c-1.8,0-3.3,1.5-3.3,3.3v27.6   c0,1.8,1.5,3.3,3.3,3.3H42c1.8,0,3.3-1.5,3.3-3.3V31.6c0,0,0,0,0,0h-9.5c-2.9,0-5.2-2.4-5-5.3C30.8,23.5,33.3,21.5,36.1,21.5z"/><path fill="#fff" d="M47.3,31.5h-2.1c0,0,0,0,0,0v-10c0,0,0,0,0,0h2.1c0.1,0,0.2,0.1,0.2,0.2v9.7C47.5,31.5,47.4,31.5,47.3,31.5   z"/><circle fill="#fff" cx="35.6" cy="26.5" r="2.3"/><path fill="#fff" d="M38.1,8.4c0.2,0,0.3-0.1,0.3-0.3V5.7c0-1.6-0.9-2.9-2.2-3.2c-0.3-0.1-0.7-0.1-1.1,0L16.3,7.7   c-0.4,0.1-0.3,0.6,0.1,0.6H38.1z"/></g></svg>
