<svg xmlns:dc="http://purl.org/dc/elements/1.1/" xmlns:cc="http://creativecommons.org/ns#" xmlns:rdf="http://www.w3.org/1999/02/22-rdf-syntax-ns#" xmlns:svg="http://www.w3.org/2000/svg" xmlns="http://www.w3.org/2000/svg" xmlns:sodipodi="http://sodipodi.sourceforge.net/DTD/sodipodi-0.dtd" xmlns:inkscape="http://www.inkscape.org/namespaces/inkscape" version="1.1" x="0px" y="0px" viewBox="0 0 100 125"><g transform="translate(0,-952.36218)"><path style="fill:#fff" d="m 26,957.36217 c -0.5523,0 -1,0.4477 -1,1 l 0,10.0938 c -2.8348,0.4746 -5,2.9412 -5,5.9062 0,3.3019 2.6981,6 6,6 3.3019,0 6,-2.6981 6,-6 0,-2.965 -2.1652,-5.4316 -5,-5.9062 l 0,-10.0938 c 0,-0.5523 -0.4477,-1 -1,-1 z m 38,0 c -0.5523,0 -1,0.4477 -1,1 l 0,10.0938 c -2.8348,0.4746 -5,2.9412 -5,5.9062 0,3.3019 2.6981,6 6,6 3.3019,0 6,-2.6981 6,-6 0,-2.965 -2.1652,-5.4316 -5,-5.9062 l 0,-10.0938 c 0,-0.5523 -0.4477,-1 -1,-1 z m -49.9688,4 c -4.9835,0 -9.0312,4.0479 -9.0312,9.0312 l 0,59.93763 c 0,4.9832 4.0477,9.0312 9.0312,9.0312 l 52.7188,0 c 2.5181,4.7562 7.503,8 13.25,8 8.2724,0 15,-6.7276 15,-15 0,-6.5223 -4.176,-12.0635 -10,-14.125 l 0,-47.84383 c 0,-4.9833 -4.0479,-9.0312 -9.0312,-9.0312 l -5.9688,0 a 1.0001,1.0001 0 1 0 0,2 l 5.9688,0 c 3.9081,0 7.0312,3.1232 7.0312,7.0312 l 0,14.9688 -76,0 0,-14.9688 c 0,-3.908 3.123,-7.0312 7.0312,-7.0312 l 5.9688,0 a 1.0001,1.0001 0 1 0 0,-2 l -5.9688,0 z m 17.9688,0 c -0.5523,0 -1,0.4477 -1,1 0,0.5523 0.4477,1 1,1 l 26,0 c 0.5523,0 1,-0.4477 1,-1 0,-0.5523 -0.4477,-1 -1,-1 l -26,0 z m -6,9 c 2.221,0 4,1.779 4,4 0,2.221 -1.779,4 -4,4 -2.221,0 -4,-1.779 -4,-4 0,-2.221 1.779,-4 4,-4 z m 38,0 c 2.221,0 4,1.779 4,4 0,2.221 -1.779,4 -4,4 -2.221,0 -4,-1.779 -4,-4 0,-2.221 1.779,-4 4,-4 z m -57,17 76,0 0,30.31253 c -0.9665,-0.1962 -1.9764,-0.3125 -3,-0.3125 -8.2724,0 -15,6.7276 -15,15 0,1.7501 0.3218,3.4372 0.875,5 l -51.8438,0 C 10.123,1037.3622 7,1034.2389 7,1030.331 l 0,-42.96883 z m 73,32.00003 c 7.1916,0 13,5.8084 13,13 0,7.1915 -5.8084,13 -13,13 -7.1916,0 -13,-5.8085 -13,-13 0,-7.1916 5.8084,-13 13,-13 z m 0,4 c -0.5523,0 -1,0.4477 -1,1 l 0,8 c 0,0.5523 0.4477,1 1,1 l 7,0 c 0.5523,0 1,-0.4477 1,-1 0,-0.5523 -0.4477,-1 -1,-1 l -6,0 0,-7 c 0,-0.5523 -0.4477,-1 -1,-1 z"/></g></svg>
